HIERARCHY
ROOT Hips
{
	OFFSET	0.00	0.00	0.00
	CHANNELS 6 Xposition Yposition Zposition Zrotation Xrotation Yrotation
	JOINT LeftUpLeg
	{
		OFFSET	 0.126116	-0.065224	 0.014019
		CHANNELS 3 Zrotation Xrotation Yrotation
		JOINT LeftLeg
		{
			OFFSET	 0.000000	 0.569914	 0.000000
			CHANNELS 3 Zrotation Xrotation Yrotation
			JOINT LeftFoot
			{
				OFFSET	 0.000000	 0.544423	 0.000000
				CHANNELS 3 Zrotation Xrotation Yrotation
				JOINT LeftToeBase
				{
					OFFSET	 0.000000	 0.207117	 0.000000
					CHANNELS 3 Zrotation Xrotation Yrotation
					End Site
					{
						OFFSET	 0.000000	 0.207117	 0.000000
					}
				}
			}
		}
	}
	JOINT RightUpLeg
	{
		OFFSET	-0.124023	-0.065224	 0.008373
		CHANNELS 3 Zrotation Xrotation Yrotation
		JOINT RightLeg
		{
			OFFSET	 0.000000	 0.570047	 0.000000
			CHANNELS 3 Zrotation Xrotation Yrotation
			JOINT RightFoot
			{
				OFFSET	 0.000000	 0.544354	 0.000000
				CHANNELS 3 Zrotation Xrotation Yrotation
				JOINT RightToeBase
				{
					OFFSET	 0.000000	 0.207540	 0.000000
					CHANNELS 3 Zrotation Xrotation Yrotation
					End Site
					{
						OFFSET	 0.000000	 0.207540	 0.000000
					}
				}
			}
		}
	}
	JOINT Spine
	{
		OFFSET	 0.000184	 0.117403	 0.007763
		CHANNELS 3 Zrotation Xrotation Yrotation
		JOINT Spine1
		{
			OFFSET	 0.000000	 0.137269	 0.000000
			CHANNELS 3 Zrotation Xrotation Yrotation
			JOINT Spine2
			{
				OFFSET	 0.000000	 0.156879	 0.000000
				CHANNELS 3 Zrotation Xrotation Yrotation
				JOINT LeftShoulder
				{
					OFFSET	 0.080501	 0.160143	 0.002496
					CHANNELS 3 Zrotation Xrotation Yrotation
					JOINT LeftArm
					{
						OFFSET	 0.000000	 0.164363	 0.000000
						CHANNELS 3 Zrotation Xrotation Yrotation
						JOINT LeftForeArm
						{
							OFFSET	 0.000000	 0.364576	 0.000000
							CHANNELS 3 Zrotation Xrotation Yrotation
							JOINT LeftHand
							{
								OFFSET	 0.000000	 0.360812	 0.000000
								CHANNELS 3 Zrotation Xrotation Yrotation
								JOINT LeftHandIndex1
								{
									OFFSET	 0.000000	 0.086006	 0.000000
									CHANNELS 3 Zrotation Xrotation Yrotation
									JOINT LeftHandIndex2
									{
										OFFSET	 0.000000	 0.047237	 0.000000
										CHANNELS 3 Zrotation Xrotation Yrotation
										JOINT LeftHandIndex3
										{
											OFFSET	-0.004284	 0.038165	 0.000551
											CHANNELS 3 Zrotation Xrotation Yrotation
											End Site
											{
												OFFSET	-0.004284	 0.038165	 0.000551
											}
										}
									}
								}
							}
						}
					}
				}
				JOINT Neck
				{
					OFFSET	 0.000000	 0.176489	 0.000000
					CHANNELS 3 Zrotation Xrotation Yrotation
					JOINT Head
					{
						OFFSET	 0.000000	 0.077941	 0.001747
						CHANNELS 3 Zrotation Xrotation Yrotation
						End Site
						{
							OFFSET	 0.000000	 0.077941	 0.001747
						}
					}
				}
				JOINT RightShoulder
				{
					OFFSET	-0.080363	 0.159706	-0.000306
					CHANNELS 3 Zrotation Xrotation Yrotation
					JOINT RightArm
					{
						OFFSET	 0.000000	 0.164196	 0.000000
						CHANNELS 3 Zrotation Xrotation Yrotation
						JOINT RightForeArm
						{
							OFFSET	 0.000000	 0.365611	 0.000000
							CHANNELS 3 Zrotation Xrotation Yrotation
							JOINT RightHand
							{
								OFFSET	 0.000000	 0.360648	 0.000000
								CHANNELS 3 Zrotation Xrotation Yrotation
								JOINT RightHandIndex1
								{
									OFFSET	 0.000000	 0.069977	 0.000000
									CHANNELS 3 Zrotation Xrotation Yrotation
									JOINT RightHandIndex2
									{
										OFFSET	 0.000000	 0.052305	 0.000000
										CHANNELS 3 Zrotation Xrotation Yrotation
										JOINT RightHandIndex3
										{
											OFFSET	 0.009002	 0.042196	 0.000782
											CHANNELS 3 Zrotation Xrotation Yrotation
											End Site
											{
												OFFSET	 0.009002	 0.042196	 0.000782
											}
										}
									}
								}
							}
						}
					}
				}
			}
		}
	}
}
MOTION
Frames:    4
Frame Time: 0.03333334
-0.005434	 1.263519	-0.172545	 1.215057	 1.212327	 179.286400	-175.753500	 4.502401	-21.565770	 4.015019	-19.527400	 5.788750	 0.967377	 73.539960	-1.047388	 1.331492	 28.938720	-2.729976	 177.800900	-7.332745	 25.550290	-2.080520	-6.829755	-5.082971	 7.354562	 72.713550	-4.622401	-1.323414	 28.824530	 2.054188	-0.742235	 2.404097	 1.505552	-1.444531	 1.496277	 0.421892	-1.012155	-0.914876	-3.324721	-113.441600	 5.269262	 92.981330	 21.726810	 54.075070	 24.802590	 7.411404	-0.251248	-0.062089	 6.087434	-9.721103	-8.042093	-6.580301	 5.266122	 0.000000	 0.000000	 0.000000	 0.000000	 0.000000	 0.000000	 0.000000	 4.549006	-0.480231	-0.367024	 3.570853	 2.231030	 0.647152	 114.177800	-4.177228	-88.599090	-49.824810	 3.092268	 59.456520	-69.368370	-2.008762	-1.398558	-41.213400	-33.331930	-28.219350	-0.359064	 10.563250	 0.744382	 11.977540	 9.298436	-2.092006	-8.358952	 3.140727	 0.104927
-0.005610	 1.263862	-0.169273	 0.954077	 1.155166	-179.327000	-175.885500	 4.992191	-20.341710	 3.962781	-19.292660	 6.553531	 3.518067	 73.175370	-3.712938	 1.331492	 28.938720	-2.729976	 177.549200	-6.682107	 26.898390	-2.330748	-7.641565	-3.930079	 11.269410	 72.855620	-8.763023	-1.320961	 28.789190	 2.121031	-0.773102	 2.288470	 0.965067	-1.135053	 1.709784	-0.128303	-0.956112	-1.296918	-2.986450	-113.435400	 5.220078	 92.874880	 19.500010	 52.460660	 27.647510	 7.645058	-0.250783	-0.061078	 3.958554	-11.512570	-11.044900	-6.580301	 5.266122	 0.000000	 0.000000	 0.000000	 0.000000	 0.000000	 0.000000	 0.000000	 4.378328	-0.508420	 0.006743	 2.161609	 2.201789	 1.470380	 114.223400	-4.475732	-88.371830	-53.017650	 7.151001	 58.720340	-59.197740	-1.826098	-1.038229	-33.641640	-71.829670	-11.956640	-0.359164	 10.566020	 0.744402	 11.977570	 9.301180	-2.092590	-8.358978	 3.142124	 0.104820
 0.001035	 1.264165	-0.164349	 0.742152	 1.156507	 178.900100	-175.737600	 4.571701	-21.879680	 3.827377	-18.680830	 4.501369	-3.233054	 72.798870	 3.237157	 1.331492	 28.938720	-2.729976	 177.466400	-5.282284	 25.085550	-2.929060	-9.568997	-5.755015	 5.884442	 74.044500	-3.182136	-1.314530	 28.699290	 2.275745	-0.773315	 2.445646	 0.789668	-0.885448	 1.584876	-0.157424	-0.873840	-0.900933	-2.401636	-113.435100	 5.334321	 92.919550	 13.895920	 51.700360	 31.669010	 7.859730	-0.250267	-0.060208	 0.316257	-8.278955	-11.871870	-6.580301	 5.266122	 0.000000	 0.000000	 0.000000	 0.000000	 0.000000	 0.000000	 0.000000	 4.731584	-0.507265	 0.171241	 1.750790	 2.360940	 2.031600	 114.260000	-4.711409	-88.192120	-54.085120	 10.137340	 54.190730	-75.413710	-2.062309	-1.624080	-31.805760	-36.266670	-17.962450	-0.359405	 10.572550	 0.744461	 11.977650	 9.307613	-2.093971	-8.359039	 3.145387	 0.104579
 0.007855	 1.264242	-0.159076	 0.547796	 1.192455	 177.797200	-175.593400	 4.339821	-22.811460	 3.734863	-18.260180	 3.000485	-8.020969	 72.292880	 8.107364	 1.331492	 28.938720	-2.729976	 177.511600	-4.202322	 23.947390	-3.382547	-11.015050	-7.088766	 1.364750	 74.822690	 1.389043	-1.307859	 28.609880	 2.432372	-0.781663	 2.593005	 0.856590	-0.826870	 1.684077	-0.023741	-0.797272	-0.599895	-2.068282	-113.435600	 5.433088	 92.966480	 10.132010	 51.773470	 33.947040	 8.050986	-0.249295	-0.059390	-1.852519	-6.322235	-11.870020	-6.580301	 5.266122	 0.000000	 0.000000	 0.000000	 0.000000	 0.000000	 0.000000	 0.000000	 5.040448	-0.479146	 0.214081	 1.901827	 2.361647	 2.243053	 114.284700	-4.865829	-88.069330	-51.348930	 16.838970	 42.329930	-97.207980	-2.108939	-2.473501	-26.839110	-10.194970	-23.971570	-0.385202	 11.312040	 0.749372	 11.988140	 10.031280	-2.249779	-8.366777	 3.544387	 0.079017
